<?xml version="1.0" encoding="UTF-8" standalone="no"?>
<!DOCTYPE svg PUBLIC "-//W3C//DTD SVG 1.1//EN" "http://www.w3.org/Graphics/SVG/1.1/DTD/svg11.dtd">
<svg xmlns="http://www.w3.org/2000/svg" version="1.1" viewBox="0.00 0.00 520.00 520.00">
<g fill="#709653">
<path d="
  M 318.92 169.67
  L 345.54 171.94
  Q 345.59 171.23 345.96 172.68
  Q 345.35 172.83 345.25 173.75
  Q 340.19 216.88 335.05 260.00
  Q 334.87 261.47 335.03 262.39
  Q 335.01 262.51 334.73 262.45
  L 314.98 257.05
  L 314.99 218.13
  Q 326.68 208.00 316.75 196.43
  L 317.64 184.53
  L 318.92 169.67
  Z"
/>
<path d="
  M 300.62 218.67
  L 300.58 252.79
  L 299.00 253.37
  L 267.75 262.77
  L 270.36 229.29
  Q 270.32 228.24 270.39 229.24
  L 300.62 218.67
  Z"
/>
<path d="
  M 284.39 300.22
  L 284.37 330.95
  L 264.26 330.95
  L 264.09 308.86
  L 271.25 300.61
  Q 271.61 300.19 272.16 300.19
  L 284.39 300.22
  Z"
/>
<path d="
  M 196.74 354.66
  L 264.47 355.18
  Q 265.02 406.21 265.67 457.00
  Q 265.67 457.17 266.12 457.85
  Q 266.18 457.57 265.74 457.77
  Q 265.46 457.89 265.15 457.82
  L 232.16 450.60
  L 187.65 440.75
  L 196.74 354.66
  Z"
/>
<path d="
  M 154.63 459.87
  L 170.67 499.10
  Q 170.91 498.78 170.92 500.01
  Q 146.30 497.01 122.01 494.13
  Q 121.67 494.09 121.51 493.69
  Q 122.02 492.47 121.70 493.46
  L 154.63 459.87
  Z"
/>
</g>
<g fill="#d8b69e">
<path d="
  M 325.58 83.92
  L 320.68 146.52
  L 214.84 140.36
  Q 211.10 94.53 207.24 49.01
  Q 207.17 48.19 206.64 47.92
  L 207.16 44.94
  L 270.80 56.57
  L 327.94 44.57
  Q 328.50 44.45 328.46 45.01
  L 325.58 83.92
  Z"
/>
<path d="
  M 300.58 252.79
  L 314.98 257.05
  L 334.73 262.45
  L 331.19 292.38
  L 297.39 292.35
  L 300.58 252.79
  Z"
/>
<path d="
  M 299.00 253.37
  Q 299.17 253.78 299.13 253.98
  Q 299.12 254.00 298.76 254.30
  Q 289.35 262.36 279.98 270.36
  Q 279.10 271.11 278.91 272.25
  L 275.11 295.39
  L 267.75 262.77
  L 299.00 253.37
  Z"
/>
</g>
<g fill="#4f5253">
<path d="
  M 226.79 0.00
  L 301.23 0.00
  L 345.59 31.73
  Q 346.03 32.05 345.97 32.59
  L 340.48 81.26
  L 325.58 83.92
  L 328.46 45.01
  Q 328.50 44.45 327.94 44.57
  L 270.80 56.57
  L 270.57 55.73
  Q 270.45 55.26 270.15 54.87
  L 226.79 0.00
  Z"
/>
<path d="
  M 177.21 23.55
  L 207.16 44.94
  L 206.64 47.92
  L 198.69 108.66
  L 174.57 89.92
  L 177.21 23.55
  Z"
/>
</g>
<g fill="#5a753d">
<path d="
  M 345.96 172.68
  L 366.91 204.09
  L 400.37 254.48
  Q 399.68 255.19 398.19 255.17
  Q 397.63 255.16 397.34 255.19
  Q 366.19 258.76 335.03 262.39
  Q 334.87 261.47 335.05 260.00
  Q 340.19 216.88 345.25 173.75
  Q 345.35 172.83 345.96 172.68
  Z"
/>
<path d="
  M 196.97 215.44
  L 270.36 229.29
  L 267.75 262.77
  L 200.60 260.93
  L 196.97 215.44
  Z"
/>
<path d="
  M 152.02 260.20
  Q 152.89 260.13 152.59 260.29
  L 173.66 282.74
  L 154.63 459.87
  L 121.70 493.46
  L 152.02 260.20
  Z"
/>
<path d="
  M 254.92 299.72
  L 264.09 308.86
  L 264.26 330.95
  L 198.32 330.99
  L 198.31 308.86
  L 254.92 299.72
  Z"
/>
<path d="
  M 264.47 355.18
  L 284.38 355.31
  L 284.38 450.61
  L 266.12 457.85
  Q 265.67 457.17 265.67 457.00
  Q 265.02 406.21 264.47 355.18
  Z"
/>
</g>
<g fill="#bdbdbd">
<path d="
  M 300.90 218.26
  Q 307.45 221.72 314.99 218.13
  L 314.98 257.05
  L 300.58 252.79
  L 300.62 218.67
  Q 300.17 218.81 300.90 218.26
  Z"
/>
<path d="
  M 307.82 309.91
  L 307.63 516.74
  L 284.93 506.42
  Q 284.37 506.16 284.37 505.55
  L 284.36 500.29
  L 284.38 450.61
  L 284.38 355.31
  L 284.37 330.95
  L 284.39 300.22
  L 297.51 300.13
  Q 298.05 300.13 298.43 300.51
  L 307.82 309.91
  Z"
/>
</g>
<g fill="#54a984">
<path d="
  M 204.33 171.97
  L 205.11 179.63
  L 208.09 198.89
  Q 208.18 199.43 208.70 199.58
  L 269.86 217.34
  L 270.39 229.24
  Q 270.32 228.24 270.36 229.29
  L 196.97 215.44
  Q 196.82 215.31 196.69 215.14
  Q 196.57 214.99 196.55 214.76
  Q 194.85 195.30 192.98 175.66
  L 204.33 171.97
  Z"
/>
<path d="
  M 400.37 254.48
  Q 400.14 254.61 400.45 254.73
  Q 400.56 254.78 400.48 254.87
  L 363.81 297.12
  L 331.19 292.38
  L 334.73 262.45
  Q 335.01 262.51 335.03 262.39
  Q 366.19 258.76 397.34 255.19
  Q 397.63 255.16 398.19 255.17
  Q 399.68 255.19 400.37 254.48
  Z"
/>
<path d="
  M 200.60 260.93
  L 267.75 262.77
  L 275.11 295.39
  Q 275.05 294.86 275.51 295.96
  L 255.22 299.36
  Q 255.11 299.38 255.04 299.46
  Q 254.95 299.57 254.92 299.72
  L 198.31 308.86
  L 173.66 282.74
  L 152.59 260.29
  Q 152.71 259.67 153.00 259.68
  Q 177.24 260.40 200.60 260.93
  Z"
/>
<path d="
  M 330.31 467.52
  L 354.35 491.28
  Q 349.57 493.69 347.50 493.92
  Q 343.04 494.42 330.32 493.90
  L 330.31 467.52
  Z"
/>
<path d="
  M 184.35 471.33
  L 225.63 477.05
  L 226.51 499.01
  L 226.38 499.35
  Q 226.16 499.88 225.61 499.71
  L 199.34 491.63
  Q 198.89 491.49 198.44 491.63
  Q 180.42 496.97 172.73 499.50
  Q 172.01 499.73 171.48 499.16
  L 184.35 471.33
  Z"
/>
</g>
<g fill="#e1e978">
<path d="
  M 172.49 144.00
  L 171.03 182.69
  L 158.56 187.58
  L 133.46 204.87
  L 136.27 169.45
  Q 136.32 168.91 136.76 168.61
  L 172.49 144.00
  Z"
/>
<path d="
  M 344.21 148.03
  L 363.40 159.56
  L 346.50 171.30
  Q 346.15 171.54 345.75 171.40
  L 345.45 171.29
  L 344.21 148.03
  Z"
/>
</g>
<g fill="#bc917b">
<path d="
  M 206.64 47.92
  Q 207.17 48.19 207.24 49.01
  Q 211.10 94.53 214.84 140.36
  L 201.13 135.01
  L 198.69 108.66
  L 206.64 47.92
  Z"
/>
<path d="
  M 214.84 140.36
  L 320.68 146.52
  L 318.92 169.67
  L 317.64 184.53
  L 305.33 183.98
  Q 304.79 183.95 304.69 184.49
  L 302.97 194.14
  Q 295.68 197.36 294.49 205.23
  L 269.86 217.34
  L 208.70 199.58
  Q 208.18 199.43 208.09 198.89
  L 205.11 179.63
  L 272.69 206.94
  Q 273.35 207.21 273.93 206.78
  L 303.89 184.60
  Q 304.79 183.93 303.67 183.88
  L 217.99 180.12
  Q 217.41 180.10 217.37 179.52
  L 214.84 140.36
  Z"
/>
<path d="
  M 300.58 252.79
  L 297.39 292.35
  L 275.51 295.96
  Q 275.05 294.86 275.11 295.39
  L 278.91 272.25
  Q 279.10 271.11 279.98 270.36
  Q 289.35 262.36 298.76 254.30
  Q 299.12 254.00 299.13 253.98
  Q 299.17 253.78 299.00 253.37
  L 300.58 252.79
  Z"
/>
</g>
<g fill="#2b2b2b">
<path d="
  M 340.48 81.26
  L 344.21 148.03
  L 345.45 171.29
  Q 345.53 171.39 345.54 171.94
  L 318.92 169.67
  L 320.68 146.52
  L 325.58 83.92
  L 340.48 81.26
  Z"
/>
<path d="
  M 174.57 89.92
  L 198.69 108.66
  L 201.13 135.01
  L 204.33 171.97
  L 192.98 175.66
  L 171.03 182.69
  L 172.49 144.00
  L 174.57 89.92
  Z"
/>
</g>
<g fill="#446125">
<path d="
  M 173.66 282.74
  L 198.31 308.86
  L 198.32 330.99
  L 196.74 354.66
  L 187.65 440.75
  L 184.35 471.33
  L 171.48 499.16
  Q 171.49 499.06 170.67 499.10
  L 154.63 459.87
  L 173.66 282.74
  Z"
/>
<path d="
  M 353.70 308.80
  L 359.03 452.76
  Q 359.05 453.26 359.35 453.66
  L 390.20 494.32
  L 360.66 500.46
  L 368.17 486.81
  Q 368.59 486.05 367.78 486.35
  L 354.35 491.28
  L 330.31 467.52
  L 330.28 300.20
  L 345.61 300.16
  Q 346.14 300.16 346.49 300.56
  L 353.70 308.80
  Z"
/>
<path d="
  M 232.16 450.60
  L 265.15 457.82
  Q 265.46 457.89 265.74 457.77
  Q 266.18 457.57 266.12 457.85
  L 284.38 450.61
  L 284.36 500.29
  L 226.54 500.21
  L 226.51 499.01
  L 225.63 477.05
  L 232.16 450.60
  Z"
/>
</g>
<path fill="#846651" d="
  M 201.13 135.01
  L 214.84 140.36
  L 217.37 179.52
  Q 217.41 180.10 217.99 180.12
  L 303.67 183.88
  Q 304.79 183.93 303.89 184.60
  L 273.93 206.78
  Q 273.35 207.21 272.69 206.94
  L 205.11 179.63
  L 204.33 171.97
  L 201.13 135.01
  Z"
/>
<path fill="#969a9b" d="
  M 330.28 300.20
  L 330.31 467.52
  L 330.32 493.90
  L 330.37 506.11
  L 307.63 516.74
  L 307.82 309.91
  L 317.35 300.47
  Q 317.73 300.09 318.27 300.09
  L 330.28 300.20
  Z"
/>
<path fill="#92bb6d" d="
  M 284.37 330.95
  L 284.38 355.31
  L 264.47 355.18
  L 196.74 354.66
  L 198.32 330.99
  L 264.26 330.95
  L 284.37 330.95
  Z"
/>
<g fill="#3f886f">
<path d="
  M 317.64 184.53
  L 316.75 196.43
  Q 310.20 191.68 302.97 194.14
  L 304.69 184.49
  Q 304.79 183.95 305.33 183.98
  L 317.64 184.53
  Z"
/>
<path d="
  M 294.49 205.23
  Q 294.11 213.23 300.90 218.26
  Q 300.17 218.81 300.62 218.67
  L 270.39 229.24
  L 269.86 217.34
  L 294.49 205.23
  Z"
/>
<path d="
  M 187.65 440.75
  L 232.16 450.60
  L 225.63 477.05
  L 184.35 471.33
  L 187.65 440.75
  Z"
/>
<path d="
  M 360.66 500.46
  L 357.59 505.52
  Q 357.30 506.00 356.74 506.01
  L 330.37 506.11
  L 330.32 493.90
  Q 343.04 494.42 347.50 493.92
  Q 349.57 493.69 354.35 491.28
  L 367.78 486.35
  Q 368.59 486.05 368.17 486.81
  L 360.66 500.46
  Z"
/>
<path d="
  M 226.51 499.01
  L 226.54 500.21
  L 226.52 509.41
  Q 226.51 509.99 225.94 510.00
  L 176.43 510.15
  L 170.99 510.06
  L 170.92 500.01
  Q 170.91 498.78 170.67 499.10
  Q 171.49 499.06 171.48 499.16
  Q 172.01 499.73 172.73 499.50
  Q 180.42 496.97 198.44 491.63
  Q 198.89 491.49 199.34 491.63
  L 225.61 499.71
  Q 226.16 499.88 226.38 499.35
  L 226.51 499.01
  Z"
/>
</g>
<path fill="#6f7173" d="
  M 226.70 0.00
  Q 227.29 0.00 226.79 0.00
  L 270.15 54.87
  Q 270.45 55.26 270.57 55.73
  L 270.80 56.57
  L 207.16 44.94
  L 177.21 23.55
  L 226.70 0.00
  Z"
/>
<g fill="#040404" fill-opacity="0.102">
<path d="
  M 121.51 493.69
  Q 121.67 494.09 122.01 494.13
  Q 146.30 497.01 170.92 500.01
  L 170.99 510.06
  Q 169.88 510.71 169.25 510.67
  Q 128.47 507.96 87.80 505.24
  Q 86.68 505.16 87.75 504.82
  L 120.86 494.23
  Q 121.00 494.19 121.08 494.07
  Q 121.29 493.78 121.51 493.69
  Z"
/>
<path d="
  M 390.20 494.32
  L 421.50 500.45
  Q 423.20 500.78 421.50 501.07
  L 309.64 520.00
  L 304.53 520.00
  L 196.10 512.88
  Q 195.61 512.85 195.21 512.57
  Q 194.99 512.43 194.76 512.31
  Q 194.53 512.20 194.24 512.21
  Q 185.19 512.43 176.43 510.15
  L 225.94 510.00
  Q 226.51 509.99 226.52 509.41
  L 226.54 500.21
  L 284.36 500.29
  L 284.37 505.55
  Q 284.37 506.16 284.93 506.42
  L 307.63 516.74
  L 330.37 506.11
  L 356.74 506.01
  Q 357.30 506.00 357.59 505.52
  L 360.66 500.46
  L 390.20 494.32
  Z"
/>
</g>
<path fill="#738657" d="
  M 192.98 175.66
  Q 194.85 195.30 196.55 214.76
  Q 196.57 214.99 196.69 215.14
  Q 196.82 215.31 196.97 215.44
  L 200.60 260.93
  Q 177.24 260.40 153.00 259.68
  Q 152.71 259.67 152.59 260.29
  Q 152.89 260.13 152.02 260.20
  L 153.73 240.84
  L 158.56 187.58
  L 171.03 182.69
  L 192.98 175.66
  Z"
/>
<g fill="#b1c045">
<path d="
  M 363.40 159.56
  L 366.91 204.09
  L 345.96 172.68
  Q 345.59 171.23 345.54 171.94
  Q 345.53 171.39 345.45 171.29
  L 345.75 171.40
  Q 346.15 171.54 346.50 171.30
  L 363.40 159.56
  Z"
/>
<path d="
  M 158.56 187.58
  L 153.73 240.84
  L 133.46 204.87
  L 158.56 187.58
  Z"
/>
</g>
<g fill="#d6d6d5">
<path d="
  M 316.75 196.43
  Q 326.68 208.00 314.99 218.13
  Q 307.45 221.72 300.90 218.26
  Q 294.11 213.23 294.49 205.23
  Q 295.68 197.36 302.97 194.14
  Q 310.20 191.68 316.75 196.43
  Z"
/>
<path d="
  M 297.39 292.35
  L 331.19 292.38
  L 363.81 297.12
  L 353.70 308.80
  L 346.49 300.56
  Q 346.14 300.16 345.61 300.16
  L 330.28 300.20
  L 318.27 300.09
  Q 317.73 300.09 317.35 300.47
  L 307.82 309.91
  L 298.43 300.51
  Q 298.05 300.13 297.51 300.13
  L 284.39 300.22
  L 272.16 300.19
  Q 271.61 300.19 271.25 300.61
  L 264.09 308.86
  L 254.92 299.72
  Q 254.95 299.57 255.04 299.46
  Q 255.11 299.38 255.22 299.36
  L 275.51 295.96
  L 297.39 292.35
  Z"
/>
</g>
<g fill="#4f5253">
<path d="
  M 320.65 97.78
  Q 316.75 95.03 313.22 93.12
  Q 311.13 91.98 308.52 91.88
  Q 292.06 91.23 274.43 90.56
  L 310.98 82.48
  Q 311.56 82.36 311.86 82.86
  L 320.65 97.78
  Z"
/>
<path d="
  M 263.84 90.58
  Q 245.96 91.17 228.97 91.94
  Q 226.72 92.04 224.84 93.15
  Q 221.39 95.21 217.58 97.69
  L 226.38 82.87
  Q 226.67 82.39 227.21 82.51
  L 263.84 90.58
  Z"
/>
</g>
<g fill="#bc917b">
<path d="
  M 274.43 90.56
  Q 292.06 91.23 308.52 91.88
  Q 311.13 91.98 313.22 93.12
  Q 316.75 95.03 320.65 97.78
  L 301.07 105.36
  Q 299.92 99.63 294.44 99.46
  Q 288.98 99.28 288.24 104.76
  Q 287.33 111.45 295.11 112.33
  L 282.11 129.81
  Q 281.70 130.36 281.57 129.68
  L 274.43 90.56
  Z"
/>
<path d="
  M 263.84 90.58
  L 256.74 129.21
  Q 256.49 130.56 255.85 129.34
  L 244.18 107.12
  Q 244.41 100.80 239.00 99.55
  Q 235.03 98.63 232.30 102.22
  L 217.58 97.69
  Q 221.39 95.21 224.84 93.15
  Q 226.72 92.04 228.97 91.94
  Q 245.96 91.17 263.84 90.58
  Z"
/>
</g>
<g fill="#2b2b2b">
<path d="
  M 244.18 107.12
  Q 240.95 114.30 235.01 111.62
  Q 232.62 110.53 231.75 108.07
  Q 230.79 105.35 232.30 102.22
  Q 235.03 98.63 239.00 99.55
  Q 244.41 100.80 244.18 107.12
  Z"
/>
<path d="
  M 301.07 105.36
  Q 300.73 111.03 295.11 112.33
  Q 287.33 111.45 288.24 104.76
  Q 288.98 99.28 294.44 99.46
  Q 299.92 99.63 301.07 105.36
  Z"
/>
</g>
<g fill="#846651">
<path d="
  M 279.66 132.24
  Q 274.56 135.51 269.49 138.90
  Q 269.06 139.19 268.63 138.90
  L 257.44 131.28
  Q 256.51 130.64 257.61 130.91
  Q 262.33 132.09 267.16 133.28
  Q 270.00 133.98 277.49 131.81
  Q 279.49 131.23 280.35 131.02
  Q 280.92 130.88 280.62 131.38
  Q 280.37 131.79 279.66 132.24
  Z"
/>
<path d="
  M 235.18 158.47
  L 233.01 160.78
  Q 232.24 161.59 232.37 160.48
  L 233.32 152.42
  Q 233.37 151.95 233.84 151.89
  L 242.30 150.87
  Q 243.11 150.77 242.53 151.35
  L 240.18 153.70
  Q 239.68 154.20 239.89 154.87
  Q 240.10 155.54 240.79 155.66
  Q 245.41 156.48 249.90 157.07
  Q 254.93 157.73 265.50 157.62
  Q 269.29 157.58 271.16 157.59
  Q 271.75 157.60 271.75 158.19
  L 271.75 162.30
  Q 271.75 162.85 271.20 162.85
  L 241.25 162.86
  Q 240.68 162.86 240.27 162.45
  L 236.27 158.46
  Q 235.72 157.91 235.18 158.47
  Z"
/>
</g>
</svg>
